<svg xmlns="http://www.w3.org/2000/svg" version="1.0" width="700.000000pt" height="700.000000pt" viewBox="0 0 700.000000 700.000000" preserveAspectRatio="xMidYMid meet">
<g transform="translate(0.000000,700.000000) scale(0.100000,-0.100000)" fill="#DA2127" stroke="none">
<path d="M6140 6541 c-8 -5 -87 -38 -175 -74 -88 -36 -178 -73 -200 -82 -22 -10 -41 -17 -43 -16 -1 1 -15 -5 -30 -13 -15 -8 -90 -40 -167 -72 -183 -76 -394 -171 -475 -214 -137 -73 -288 -270 -318 -415 -10 -47 -14 -84 -29 -260 -3 -38 -8 -1168 -10 -2511 l-4 -2441 533 2 c565 2 622 6 707 50 84 43 192 166 232 265 12 30 14 449 14 2840 0 1543 -1 2838 -3 2878 -4 74 -6 78 -32 63z"/>
<path d="M3960 4994 c-607 -249 -873 -371 -936 -426 -54 -48 -135 -152 -187 -243 -50 -86 -52 -96 -62 -310 -7 -139 -14 -980 -20 -2381 l-5 -1191 523 3 c525 2 593 5 657 26 92 29 203 115 245 189 27 47 47 94 51 119 12 77 16 564 15 1725 -2 2068 -5 2595 -16 2595 -5 -1 -125 -48 -265 -106z"/>
<path d="M2205 3481 c-49 -21 -101 -42 -115 -49 -14 -6 -146 -61 -293 -122 -148 -61 -298 -124 -333 -141 -36 -16 -66 -29 -69 -29 -2 0 -66 -30 -142 -67 -115 -57 -148 -78 -199 -130 -34 -34 -81 -92 -106 -130 -94 -144 -114 -229 -124 -533 -7 -180 -12 -1795 -6 -1821 3 -14 55 -16 525 -14 340 2 546 7 591 14 92 16 168 54 236 121 79 77 117 159 126 270 8 99 11 1950 4 2376 l-5 292 -90 -37z"/>
</g>
</svg>
